<svg width="120" height="66" viewBox="0 0 120 66" fill="none" xmlns="http://www.w3.org/2000/svg">
<path d="M17.7077 33.9628C17.7077 35.2652 17.3946 36.4862 16.7684 37.6258C16.1654 38.7654 15.2029 39.6841 13.8809 40.3818C12.5821 41.0795 10.9354 41.4283 8.94082 41.4283H4.87048V50.7777H0V26.4276H8.94082C10.8194 26.4276 12.4197 26.7532 13.7417 27.4044C15.0637 28.0556 16.0494 28.951 16.6988 30.0906C17.3714 31.2301 17.7077 32.5209 17.7077 33.9628ZM8.73208 37.4863C10.0773 37.4863 11.0746 37.1839 11.724 36.5793C12.3734 35.9513 12.6981 35.0792 12.6981 33.9628C12.6981 31.5906 11.3761 30.4045 8.73208 30.4045H4.87048V37.4863H8.73208Z" fill="white"/>
<path d="M23.6357 29.1486C22.7776 29.1486 22.0586 28.8812 21.4788 28.3463C20.9222 27.7881 20.6438 27.102 20.6438 26.288C20.6438 25.474 20.9222 24.7996 21.4788 24.2647C22.0586 23.7065 22.7776 23.4274 23.6357 23.4274C24.4938 23.4274 25.2012 23.7065 25.7579 24.2647C26.3377 24.7996 26.6276 25.474 26.6276 26.288C26.6276 27.102 26.3377 27.7881 25.7579 28.3463C25.2012 28.8812 24.4938 29.1486 23.6357 29.1486ZM26.0362 31.4511V50.7777H21.1657V31.4511H26.0362Z" fill="white"/>
<path d="M41.4937 50.7777L37.5277 44.7774L34.014 50.7777H28.7957L35.0925 41.0795L28.7261 31.4511H34.2228L38.1539 37.4165L41.7024 31.4511H46.9208L40.5892 41.0795L46.9904 50.7777H41.4937Z" fill="white"/>
<path d="M67.5522 40.6958C67.5522 41.3935 67.5058 42.0214 67.413 42.5796H53.3234C53.4393 43.975 53.9264 45.0681 54.7845 45.8588C55.6427 46.6495 56.6979 47.0449 57.9503 47.0449C59.7594 47.0449 61.0466 46.2658 61.8119 44.7076H67.0651C66.5085 46.5681 65.4416 48.1031 63.8645 49.3125C62.2874 50.4986 60.3508 51.0916 58.0547 51.0916C56.1993 51.0916 54.5294 50.6846 53.0451 49.8706C51.5839 49.0334 50.4359 47.8589 49.6009 46.3472C48.7892 44.8355 48.3833 43.0912 48.3833 41.1144C48.3833 39.1143 48.7892 37.3584 49.6009 35.8467C50.4127 34.335 51.5491 33.1721 53.0103 32.3581C54.4714 31.5441 56.1529 31.1371 58.0547 31.1371C59.8869 31.1371 61.522 31.5325 62.96 32.3232C64.4211 33.114 65.546 34.2419 66.3345 35.7071C67.1463 37.1491 67.5522 38.8119 67.5522 40.6958ZM62.5077 39.3003C62.4845 38.0445 62.0323 37.0444 61.1509 36.3002C60.2696 35.5327 59.1912 35.149 57.9156 35.149C56.7095 35.149 55.689 35.5211 54.8541 36.2653C54.0424 36.9863 53.5437 37.9979 53.3582 39.3003H62.5077Z" fill="white"/>
<path d="M75.9777 24.9624V50.7777H71.1072V24.9624H75.9777Z" fill="white"/>
<path d="M84.3119 44.1473C85.0193 44.2753 85.6107 44.6241 86.0861 45.1939C86.5732 45.7637 86.8167 46.4323 86.8167 47.1998C86.8167 47.8278 86.666 48.3917 86.3644 48.8918C86.0745 49.3802 85.6339 49.7697 85.0425 50.0604C84.4626 50.3395 83.7553 50.4791 82.9203 50.4791H79.0413V38.2343H82.8507C84.0684 38.2343 84.9845 38.5191 85.5991 39.0889C86.2253 39.6471 86.5384 40.3739 86.5384 41.2693C86.5384 42.0484 86.3297 42.6822 85.9122 43.1705C85.4947 43.6473 84.9613 43.9729 84.3119 44.1473ZM79.8241 43.7985H82.8855C83.8016 43.7985 84.5032 43.5834 84.9903 43.1531C85.4889 42.7112 85.7382 42.1065 85.7382 41.3391C85.7382 40.5948 85.4947 40.0076 85.0077 39.5773C84.5206 39.1471 83.7842 38.932 82.7986 38.932H79.8241V43.7985ZM82.8681 49.7988C83.8538 49.7988 84.625 49.5662 85.1816 49.1011C85.7498 48.6243 86.0339 47.9731 86.0339 47.1475C86.0339 46.3335 85.744 45.6881 85.1642 45.2114C84.596 44.723 83.8132 44.4788 82.8159 44.4788H79.8241V49.7988H82.8681Z" fill="white"/>
<path d="M93.2719 50.6186C92.3905 50.6186 91.5962 50.4209 90.8888 50.0256C90.1814 49.6302 89.6248 49.0662 89.2189 48.3336C88.8246 47.5894 88.6275 46.7231 88.6275 45.7346C88.6275 44.7578 88.8304 43.9031 89.2363 43.1705C89.6422 42.4263 90.1988 41.8623 90.9062 41.4786C91.6252 41.0832 92.4253 40.8855 93.3067 40.8855C94.188 40.8855 94.9823 41.0832 95.6897 41.4786C96.3971 41.8623 96.9479 42.4205 97.3422 43.1531C97.7481 43.8857 97.951 44.7462 97.951 45.7346C97.951 46.7231 97.7481 47.5894 97.3422 48.3336C96.9363 49.0662 96.3739 49.6302 95.6549 50.0256C94.9475 50.4209 94.1532 50.6186 93.2719 50.6186ZM93.2719 49.9209C93.9561 49.9209 94.5939 49.7697 95.1853 49.4674C95.7883 49.1534 96.2695 48.6825 96.629 48.0545C96.9885 47.4266 97.1683 46.6533 97.1683 45.7346C97.1683 44.8276 96.9885 44.0601 96.629 43.4322C96.2695 42.8043 95.7941 42.3391 95.2027 42.0368C94.6112 41.7228 93.9734 41.5658 93.2893 41.5658C92.6051 41.5658 91.9673 41.7228 91.3759 42.0368C90.796 42.3391 90.3264 42.8043 89.9669 43.4322C89.6074 44.0601 89.4277 44.8276 89.4277 45.7346C89.4277 46.6533 89.6016 47.4266 89.9495 48.0545C90.309 48.6825 90.7786 49.1534 91.3585 49.4674C91.9499 49.7697 92.5877 49.9209 93.2719 49.9209Z" fill="white"/>
<path d="M104.605 40.8158C105.718 40.8158 106.629 41.1646 107.336 41.8623C108.043 42.5484 108.397 43.5717 108.397 44.9323V50.4791H107.632V44.9846C107.632 43.8566 107.348 42.9961 106.779 42.4031C106.211 41.7984 105.44 41.496 104.466 41.496C103.445 41.496 102.628 41.8216 102.013 42.4728C101.41 43.124 101.109 44.0892 101.109 45.3683V50.4791H100.326V37.5714H101.109V43.0136C101.375 42.3042 101.822 41.7635 102.448 41.3914C103.074 41.0076 103.793 40.8158 104.605 40.8158Z" fill="white"/>
<path d="M115.321 50.6186C114.44 50.6186 113.645 50.4209 112.938 50.0256C112.23 49.6302 111.674 49.0662 111.268 48.3336C110.874 47.5894 110.677 46.7231 110.677 45.7346C110.677 44.7578 110.879 43.9031 111.285 43.1705C111.691 42.4263 112.248 41.8623 112.955 41.4786C113.674 41.0832 114.474 40.8855 115.356 40.8855C116.237 40.8855 117.031 41.0832 117.739 41.4786C118.446 41.8623 118.997 42.4205 119.391 43.1531C119.797 43.8857 120 44.7462 120 45.7346C120 46.7231 119.797 47.5894 119.391 48.3336C118.985 49.0662 118.423 49.6302 117.704 50.0256C116.997 50.4209 116.202 50.6186 115.321 50.6186ZM115.321 49.9209C116.005 49.9209 116.643 49.7697 117.234 49.4674C117.837 49.1534 118.319 48.6825 118.678 48.0545C119.038 47.4266 119.217 46.6533 119.217 45.7346C119.217 44.8276 119.038 44.0601 118.678 43.4322C118.319 42.8043 117.843 42.3391 117.252 42.0368C116.66 41.7228 116.022 41.5658 115.338 41.5658C114.654 41.5658 114.016 41.7228 113.425 42.0368C112.845 42.3391 112.375 42.8043 112.016 43.4322C111.656 44.0601 111.477 44.8276 111.477 45.7346C111.477 46.6533 111.651 47.4266 111.998 48.0545C112.358 48.6825 112.828 49.1534 113.407 49.4674C113.999 49.7697 114.637 49.9209 115.321 49.9209Z" fill="white"/>
<path d="M62.8296 22.6756V10.4657H50.6534V22.6756H62.8296Z" fill="white"/>
<path d="M48.9138 27.7145V18.9931H40.2165V27.7145H48.9138Z" fill="white"/>
<path d="M80.2223 15.6985V4.45487e-07H64.5672V15.6985H80.2223Z" fill="white"/>
<path d="M31.4399 57.2573C31.4399 57.951 31.2132 58.5098 30.7597 58.9337C30.3062 59.3576 29.626 59.5695 28.7191 59.5695H27.0935V63.0147H26.2865V54.9336H28.7191C29.6183 54.9336 30.2947 55.1456 30.7482 55.5695C31.2093 55.9934 31.4399 56.556 31.4399 57.2573ZM28.7191 58.8759C29.9796 58.8759 30.6098 58.3364 30.6098 57.2573C30.6098 56.7178 30.4599 56.3094 30.1602 56.0319C29.8604 55.7544 29.3801 55.6157 28.7191 55.6157H27.0935V58.8759H28.7191Z" fill="white"/>
<path d="M33.1975 55.5116C33.0361 55.5116 32.8978 55.4538 32.7825 55.3382C32.6672 55.2226 32.6096 55.08 32.6096 54.9105C32.6096 54.7409 32.6672 54.6022 32.7825 54.4943C32.8978 54.3787 33.0361 54.3209 33.1975 54.3209C33.3589 54.3209 33.4973 54.3787 33.6126 54.4943C33.7279 54.6022 33.7855 54.7409 33.7855 54.9105C33.7855 55.08 33.7279 55.2226 33.6126 55.3382C33.4973 55.4538 33.3589 55.5116 33.1975 55.5116ZM33.601 56.7024V63.0147H32.794V56.7024H33.601Z" fill="white"/>
<path d="M38.7259 63.0147L37.1003 60.4713L35.5323 63.0147H34.6792L36.7083 59.8585L34.7022 56.7024H35.613L37.2156 59.2111L38.772 56.7024H39.6136L37.6075 59.8239L39.6366 63.0147H38.7259Z" fill="white"/>
<path d="M46.4268 59.5348C46.4268 59.8123 46.4191 60.0243 46.4037 60.1707H41.1811C41.2041 60.6485 41.3194 61.057 41.5269 61.3961C41.7345 61.7353 42.0073 61.9935 42.3455 62.1707C42.6837 62.3403 43.0526 62.4251 43.4523 62.4251C43.9749 62.4251 44.413 62.2979 44.7666 62.0436C45.1278 61.7892 45.3661 61.4462 45.4814 61.0146H46.3345C46.1808 61.6312 45.8503 62.136 45.343 62.5291C44.8434 62.9145 44.2132 63.1072 43.4523 63.1072C42.8605 63.1072 42.3301 62.9761 41.8613 62.7141C41.3924 62.4443 41.0235 62.0667 40.7545 61.5811C40.4932 61.0879 40.3625 60.5137 40.3625 59.8585C40.3625 59.2034 40.4932 58.6292 40.7545 58.136C41.0158 57.6427 41.3809 57.2651 41.8498 57.003C42.3186 56.741 42.8528 56.6099 43.4523 56.6099C44.0518 56.6099 44.5744 56.741 45.0202 57.003C45.4737 57.2651 45.8196 57.6196 46.0578 58.0666C46.3038 58.5059 46.4268 58.9953 46.4268 59.5348ZM45.6082 59.5117C45.6159 59.0416 45.5198 58.6408 45.32 58.3094C45.1278 57.978 44.8627 57.7275 44.5245 57.5579C44.1863 57.3884 43.8174 57.3036 43.4177 57.3036C42.8182 57.3036 42.3071 57.4963 41.8843 57.8816C41.4616 58.267 41.2272 58.8104 41.1811 59.5117H45.6082Z" fill="white"/>
<path d="M48.7103 54.4596V63.0147H47.9033V54.4596H48.7103Z" fill="white"/>
<path d="M52.7053 63.1072C51.9828 63.1072 51.391 62.9415 50.9298 62.61C50.4763 62.2709 50.2227 61.8123 50.1689 61.2343H50.999C51.0374 61.5888 51.2027 61.8778 51.4947 62.1014C51.7945 62.3172 52.1942 62.4251 52.6937 62.4251C53.1318 62.4251 53.4739 62.321 53.7198 62.1129C53.9735 61.9048 54.1003 61.6466 54.1003 61.3383C54.1003 61.1225 54.0311 60.9453 53.8928 60.8065C53.7544 60.6678 53.5776 60.5599 53.3624 60.4828C53.1549 60.3981 52.8705 60.3094 52.5093 60.2169C52.0404 60.0936 51.66 59.9703 51.3679 59.847C51.0758 59.7237 50.826 59.5425 50.6185 59.3036C50.4187 59.057 50.3188 58.7294 50.3188 58.3209C50.3188 58.0127 50.411 57.7275 50.5955 57.4654C50.7799 57.2034 51.0413 56.9953 51.3794 56.8412C51.7176 56.687 52.1019 56.6099 52.5323 56.6099C53.2087 56.6099 53.7544 56.7833 54.1695 57.1302C54.5845 57.4693 54.8074 57.9394 54.8381 58.5406H54.0311C54.008 58.1707 53.862 57.8739 53.593 57.6504C53.3317 57.4192 52.9704 57.3036 52.5093 57.3036C52.1019 57.3036 51.7714 57.3999 51.5178 57.5926C51.2642 57.7853 51.1373 58.0242 51.1373 58.3094C51.1373 58.556 51.2103 58.7603 51.3564 58.9221C51.5101 59.0763 51.6984 59.1996 51.9213 59.2921C52.1442 59.3768 52.4439 59.4732 52.8206 59.5811C53.274 59.7044 53.6353 59.8239 53.9043 59.9395C54.1733 60.0551 54.4039 60.2246 54.596 60.4482C54.7882 60.6717 54.8881 60.9684 54.8958 61.3383C54.8958 61.6775 54.8035 61.9819 54.6191 62.2517C54.4346 62.5137 54.1771 62.7218 53.8466 62.8759C53.5161 63.0301 53.1357 63.1072 52.7053 63.1072Z" fill="white"/>
<path d="M60.6277 57.3845V61.3037C60.6277 61.689 60.7008 61.9549 60.8468 62.1014C60.9928 62.2478 61.2503 62.321 61.6192 62.321H62.3571V63.0147H61.4924C60.9237 63.0147 60.5009 62.8836 60.2242 62.6216C59.9475 62.3518 59.8092 61.9125 59.8092 61.3037V57.3845H58.933V56.7024H59.8092V55.1186H60.6277V56.7024H62.3571V57.3845H60.6277Z" fill="white"/>
<path d="M66.4435 63.1072C65.8517 63.1072 65.3175 62.9761 64.841 62.7141C64.3721 62.4443 63.9993 62.0667 63.7226 61.5811C63.4536 61.0879 63.3191 60.5137 63.3191 59.8585C63.3191 59.2034 63.4575 58.6331 63.7342 58.1475C64.0109 57.6543 64.3875 57.2766 64.864 57.0146C65.3405 56.7448 65.8747 56.6099 66.4665 56.6099C67.0584 56.6099 67.5925 56.7448 68.0691 57.0146C68.5533 57.2766 68.9299 57.6543 69.1989 58.1475C69.4756 58.6331 69.6139 59.2034 69.6139 59.8585C69.6139 60.506 69.4756 61.0763 69.1989 61.5696C68.9222 62.0628 68.5418 62.4443 68.0575 62.7141C67.5733 62.9761 67.0353 63.1072 66.4435 63.1072ZM66.4435 62.4019C66.8585 62.4019 67.2428 62.3095 67.5964 62.1245C67.9499 61.9318 68.2343 61.6466 68.4495 61.269C68.6724 60.8836 68.7839 60.4135 68.7839 59.8585C68.7839 59.3036 68.6763 58.8373 68.4611 58.4597C68.2458 58.0743 67.9615 57.7891 67.6079 57.6042C67.2544 57.4115 66.8701 57.3151 66.455 57.3151C66.04 57.3151 65.6557 57.4115 65.3021 57.6042C64.9486 57.7891 64.6642 58.0743 64.449 58.4597C64.2414 58.8373 64.1377 59.3036 64.1377 59.8585C64.1377 60.4135 64.2414 60.8836 64.449 61.269C64.6642 61.6466 64.9447 61.9318 65.2906 62.1245C65.6441 62.3095 66.0284 62.4019 66.4435 62.4019Z" fill="white"/>
<path d="M114.882 57.6763V61.2024C114.882 61.4413 114.936 61.6147 115.043 61.7226C115.159 61.8228 115.351 61.8729 115.62 61.8729H116.427V62.9712H115.389C114.798 62.9712 114.344 62.8325 114.029 62.555C113.714 62.2775 113.556 61.8267 113.556 61.2024V57.6763H112.807V56.6011H113.556V55.0173H114.882V56.6011H116.427V57.6763H114.882Z" fill="white"/>
<path d="M110.978 55.7571C110.74 55.7571 110.54 55.6762 110.378 55.5143C110.217 55.3525 110.136 55.1521 110.136 54.9132C110.136 54.6743 110.217 54.4739 110.378 54.312C110.54 54.1502 110.74 54.0692 110.978 54.0692C111.208 54.0692 111.404 54.1502 111.566 54.312C111.727 54.4739 111.808 54.6743 111.808 54.9132C111.808 55.1521 111.727 55.3525 111.566 55.5143C111.404 55.6762 111.208 55.7571 110.978 55.7571ZM111.624 56.6011V62.9711H110.309V56.6011H111.624Z" fill="white"/>
<path d="M102.057 59.7571C102.057 59.1174 102.188 58.5509 102.449 58.0577C102.718 57.5644 103.079 57.1829 103.533 56.9131C103.994 56.6357 104.501 56.4969 105.055 56.4969C105.554 56.4969 105.989 56.5971 106.357 56.7975C106.734 56.9902 107.034 57.233 107.257 57.5259V56.601H108.583V62.9711H107.257V62.0231C107.034 62.3236 106.73 62.5741 106.346 62.7745C105.962 62.9749 105.524 63.0751 105.032 63.0751C104.486 63.0751 103.986 62.9364 103.533 62.6589C103.079 62.3737 102.718 61.9807 102.449 61.4797C102.188 60.971 102.057 60.3968 102.057 59.7571ZM107.257 59.7802C107.257 59.3409 107.164 58.9594 106.98 58.6357C106.803 58.312 106.569 58.0654 106.277 57.8958C105.985 57.7263 105.67 57.6415 105.331 57.6415C104.993 57.6415 104.678 57.7263 104.386 57.8958C104.094 58.0577 103.856 58.3004 103.671 58.6242C103.494 58.9402 103.406 59.3178 103.406 59.7571C103.406 60.1964 103.494 60.5818 103.671 60.9132C103.856 61.2446 104.094 61.499 104.386 61.6762C104.686 61.8458 105.001 61.9306 105.331 61.9306C105.67 61.9306 105.985 61.8458 106.277 61.6762C106.569 61.5067 106.803 61.26 106.98 60.9363C107.164 60.6049 107.257 60.2196 107.257 59.7802Z" fill="white"/>
<path d="M99.3853 57.5259C99.5774 57.2022 99.8311 56.9517 100.146 56.7744C100.469 56.5894 100.849 56.4969 101.288 56.4969V57.8611H100.953C100.438 57.8611 100.046 57.9922 99.7773 58.2542C99.516 58.5163 99.3853 58.971 99.3853 59.6184V62.9711H98.071V56.601H99.3853V57.5259Z" fill="white"/>
<path d="M95.3144 57.6763V61.2024C95.3144 61.4413 95.3682 61.6147 95.4758 61.7226C95.5911 61.8228 95.7832 61.8729 96.0522 61.8729H96.8593V62.9712H95.8217C95.2298 62.9712 94.7764 62.8325 94.4612 62.555C94.1461 62.2775 93.9885 61.8267 93.9885 61.2024V57.6763H93.2392V56.6011H93.9885V55.0173H95.3144V56.6011H96.8593V57.6763H95.3144Z" fill="white"/>
<path d="M90.6711 57.5259C90.8632 57.2022 91.1169 56.9517 91.432 56.7744C91.7548 56.5894 92.1353 56.4969 92.5734 56.4969V57.8611H92.239C91.7241 57.8611 91.3321 57.9922 91.0631 58.2542C90.8018 58.5163 90.6711 58.971 90.6711 59.6184V62.9711H89.3568V56.601H90.6711V57.5259Z" fill="white"/>
<path d="M84.7598 63.0751C84.1603 63.0751 83.6184 62.9402 83.1342 62.6705C82.65 62.393 82.2695 62.0076 81.9928 61.5144C81.7161 61.0134 81.5778 60.4354 81.5778 59.7802C81.5778 59.1328 81.72 58.5586 82.0044 58.0577C82.2887 57.5567 82.6769 57.1713 83.1688 56.9016C83.6607 56.6318 84.2102 56.4969 84.8174 56.4969C85.4246 56.4969 85.9742 56.6318 86.4661 56.9016C86.958 57.1713 87.3461 57.5567 87.6305 58.0577C87.9149 58.5586 88.0571 59.1328 88.0571 59.7802C88.0571 60.4277 87.911 61.0018 87.619 61.5028C87.3269 62.0038 86.9272 62.393 86.42 62.6705C85.9204 62.9402 85.367 63.0751 84.7598 63.0751ZM84.7598 61.9306C85.098 61.9306 85.4131 61.8496 85.7052 61.6878C86.0049 61.5259 86.247 61.2832 86.4315 60.9595C86.616 60.6358 86.7082 60.2427 86.7082 59.7802C86.7082 59.3178 86.6198 58.9286 86.443 58.6126C86.2662 58.2889 86.0318 58.0461 85.7397 57.8843C85.4477 57.7224 85.1326 57.6415 84.7944 57.6415C84.4562 57.6415 84.1411 57.7224 83.849 57.8843C83.5646 58.0461 83.3379 58.2889 83.1688 58.6126C82.9997 58.9286 82.9152 59.3178 82.9152 59.7802C82.9152 60.4662 83.0881 60.998 83.434 61.3756C83.7875 61.7456 84.2294 61.9306 84.7598 61.9306Z" fill="white"/>
<path d="M75.5053 57.5374C75.7282 57.2446 76.0318 56.9979 76.4161 56.7975C76.8004 56.5971 77.2346 56.4969 77.7189 56.4969C78.2723 56.4969 78.7757 56.6357 79.2292 56.9131C79.6903 57.1829 80.0516 57.5644 80.3129 58.0577C80.5742 58.5509 80.7049 59.1174 80.7049 59.7571C80.7049 60.3968 80.5742 60.971 80.3129 61.4797C80.0516 61.9807 79.6903 62.3737 79.2292 62.6589C78.7757 62.9364 78.2723 63.0751 77.7189 63.0751C77.2346 63.0751 76.8042 62.9788 76.4276 62.7861C76.051 62.5857 75.7436 62.3391 75.5053 62.0462V66H74.191V56.601H75.5053V57.5374ZM79.3675 59.7571C79.3675 59.3178 79.2753 58.9402 79.0908 58.6242C78.914 58.3004 78.6758 58.0577 78.376 57.8958C78.0839 57.7263 77.7688 57.6415 77.4306 57.6415C77.1001 57.6415 76.785 57.7263 76.4853 57.8958C76.1932 58.0654 75.9549 58.312 75.7705 58.6357C75.5937 58.9594 75.5053 59.3409 75.5053 59.7802C75.5053 60.2196 75.5937 60.6049 75.7705 60.9363C75.9549 61.26 76.1932 61.5067 76.4853 61.6762C76.785 61.8458 77.1001 61.9306 77.4306 61.9306C77.7688 61.9306 78.0839 61.8458 78.376 61.6762C78.6758 61.499 78.914 61.2446 79.0908 60.9132C79.2753 60.5818 79.3675 60.1964 79.3675 59.7571Z" fill="white"/>
</svg>
